<?xml version="1.0" ?><svg style="enable-background:new 0 0 32 32;" version="1.1" viewBox="0 0 32 32" xml:space="preserve" xmlns="http://www.w3.org/2000/svg" xmlns:xlink="http://www.w3.org/1999/xlink"><style type="text/css">
	.st0{display:none;}
	.st1{fill:none;}
</style><g class="st0" id="grid"/><g id="Layer_2"><g><path fill="#38474E" d="M2.39,30.79l2.51-8c-0.39-0.62-1.06-1.86-1.49-3.54l1.94-0.5c0.52,2.02,1.44,3.27,1.45,3.28l0.31,0.41l-1.5,4.77l4.38-1.9    l0.39,0.17C11.4,25.9,14.38,27,16,27c6.07,0,11-4.93,11-11S22.07,5,16,5C10.68,5,5,7.89,5,16H3C3,8.1,8.1,3,16,3    c7.17,0,13,5.83,13,13s-5.83,13-13,13c-1.95,0-4.91-1.1-5.99-1.52L2.39,30.79z"/></g><g><path fill="#38474E" d="M18.65,25c-3.19,0-5.81-1.54-6.86-4.05l-2.31-5.51c-1.08-2.56-0.29-5.58,2.05-7.88l0.13-0.13l3.82-1.7l1.13,2.7    c0.83,1.96-0.41,4.36-2.75,5.35l-0.78-1.84c1.3-0.55,2.07-1.8,1.68-2.73l-0.34-0.82L12.8,9.11c-1.65,1.69-2.22,3.8-1.48,5.55    l2.31,5.51c0.73,1.75,2.64,2.82,5.01,2.83l1.65-0.66l-0.34-0.82c-0.18-0.42-0.57-0.73-1.11-0.88c-0.62-0.17-1.35-0.11-2.02,0.17    l-0.78-1.84c1.09-0.46,2.28-0.55,3.33-0.26c1.12,0.31,2,1.05,2.41,2.03l1.13,2.7l-3.89,1.54l-0.18,0C18.78,25,18.71,25,18.65,25z"/></g><g><rect fill="#38474E" height="3.16" transform="matrix(0.9487 -0.3162 0.3162 0.9487 -4.4223 5.7483)" width="2" x="14.5" y="14.92"/></g></g></svg>